<?xml version="1.0" encoding="UTF-8" standalone="no"?>
<!-- Created with Inkscape (http://www.inkscape.org/) -->

<svg
   xmlns:dc="http://purl.org/dc/elements/1.1/"
   xmlns:cc="http://creativecommons.org/ns#"
   xmlns:rdf="http://www.w3.org/1999/02/22-rdf-syntax-ns#"
   xmlns:svg="http://www.w3.org/2000/svg"
   xmlns="http://www.w3.org/2000/svg"
   xmlns:sodipodi="http://sodipodi.sourceforge.net/DTD/sodipodi-0.dtd"
   xmlns:inkscape="http://www.inkscape.org/namespaces/inkscape"
   width="96.542274mm"
   height="91.778465mm"
   viewBox="0 0 96.542274 91.778465"
   version="1.1"
   id="svg8"
   inkscape:version="0.92.1 r15371"
   sodipodi:docname="Logo.svg">
  <defs
     id="defs2" />
  <sodipodi:namedview
     id="base"
     pagecolor="#ffffff"
     bordercolor="#666666"
     borderopacity="1.0"
     inkscape:pageopacity="0.0"
     inkscape:pageshadow="2"
     inkscape:zoom="0.69308362"
     inkscape:cx="126.36738"
     inkscape:cy="1.8433841"
     inkscape:document-units="mm"
     inkscape:current-layer="layer1"
     showgrid="false"
     inkscape:window-width="1920"
     inkscape:window-height="1027"
     inkscape:window-x="0"
     inkscape:window-y="25"
     inkscape:window-maximized="1"
     fit-margin-top="0"
     fit-margin-left="0"
     fit-margin-right="0"
     fit-margin-bottom="0"
     inkscape:pagecheckerboard="true" />
  <metadata
     id="metadata5">
    <rdf:RDF>
      <cc:Work
         rdf:about="">
        <dc:format>image/svg+xml</dc:format>
        <dc:type
           rdf:resource="http://purl.org/dc/dcmitype/StillImage" />
        <dc:title></dc:title>
      </cc:Work>
    </rdf:RDF>
  </metadata>
  <g
     inkscape:label="Layer 1"
     inkscape:groupmode="layer"
     id="layer1"
     transform="translate(-56.329117,-25.19495)">
    <ellipse
       style="opacity:1;fill:#536c5d;fill-opacity:1;stroke:none;stroke-width:5.88235283;stroke-linecap:round;stroke-linejoin:round;stroke-miterlimit:4;stroke-dasharray:none;stroke-opacity:1;paint-order:stroke fill markers"
       id="path4515"
       cx="104.60014"
       cy="71.084183"
       rx="48.271027"
       ry="45.889233" />
    <path
       style="opacity:0.369;fill:#000000;fill-opacity:1;stroke:none;stroke-width:5.88235283;stroke-linecap:round;stroke-linejoin:round;stroke-miterlimit:4;stroke-dasharray:none;stroke-opacity:1;paint-order:stroke fill markers"
       d="m 128.36886,47.311039 -2.27133,47.461924 -45.200458,-0.16887 9.91762,20.436507 c 4.472635,1.27468 9.116151,1.92569 13.785438,1.93269 26.65946,1.2e-4 48.27128,-20.545247 48.27126,-45.889267 -0.009,-0.43529 -0.0259,-0.87043 -0.0486,-1.30529 z"
       id="path4515-3"
       inkscape:connector-curvature="0"
       sodipodi:nodetypes="cccccccc" />
    <path
       inkscape:connector-curvature="0"
       id="path118-7"
       d="m 80.897059,94.604023 c -0.06088,-0.15866 -0.08373,-3.71116 -0.05079,-7.89445 l 0.05989,-7.60597 h 7.834682 7.834684 v 7.83469 7.83467 l -7.783891,0.0598 c -6.127747,0.0469 -7.807442,-0.001 -7.894587,-0.22872 z m 13.407554,-7.66573 v -5.56378 h -5.563761 -5.563759 l -0.06108,5.33198 c -0.0336,2.93259 -0.01059,5.46365 0.0512,5.62459 0.08825,0.22999 1.292146,0.27959 5.624848,0.23179 l 5.512561,-0.0608 z m -8.868228,3.11732 c -0.06365,-0.16587 -0.08707,-1.67602 -0.05205,-3.35587 l 0.06367,-3.0543 h 3.292837 3.292839 v 3.29285 3.29284 l -3.240788,0.0631 c -2.529718,0.0492 -3.266181,-0.004 -3.356519,-0.23856 z m 13.621798,4.5321 c -0.0648,-0.1688 -0.0878,-1.167 -0.0512,-2.21818 l 0.0666,-1.91131 1.021907,-0.11353 1.02191,-0.11353 0.0687,-1.06575 0.0687,-1.06577 -1.0906,-0.0696 -1.090597,-0.0698 v -1.02189 -1.02192 h 1.021907 1.02192 l 0.0692,1.07867 0.0692,1.07868 h 2.25848 2.25848 v -3.40024 -3.40032 l -3.34961,-0.0628 -3.349607,-0.0628 -0.0649,-2.21019 -0.065,-2.2102 -5.612354,-0.0607 -5.612359,-0.0607 -0.06281,-3.34357 -0.06281,-3.34358 -3.343574,-0.0628 -3.343574,-0.0628 v -2.15737 -2.15738 h 2.157375 2.157378 l 0.113541,1.02192 0.113541,1.02191 1.065759,0.0687 1.065759,0.0687 0.06971,-1.0906 0.06969,-1.09062 h 1.021913 1.021916 v 1.02192 1.02192 l -1.078689,0.0692 -1.078687,0.0692 v 1.11479 1.11481 l 2.214149,0.0651 2.21415,0.0651 0.113541,2.15738 0.113553,2.15737 3.349609,0.0628 3.349603,0.0628 v -1.13329 -1.13331 l -2.214142,-0.0649 -2.214148,-0.0649 v -1.02186 -1.02191 h 2.157375 2.157375 l 0.0697,1.0906 0.0697,1.0906 1.065757,-0.0686 1.06576,-0.0686 v -3.29289 -3.29283 l -1.06576,-0.0687 -1.065757,-0.0687 -0.0697,1.0906 -0.0697,1.09061 H 96.6891 94.531725 v -1.02191 -1.02191 l 2.209376,-0.0649 2.209372,-0.0649 0.0615,-4.47689 0.0616,-4.47691 1.090597,-0.0697 1.0906,-0.0697 -0.0687,-1.06576 -0.0687,-1.06576 -1.02191,-0.1136 -1.021917,-0.11354 v -2.157317 -2.157375 l 1.021917,-0.113541 1.02191,-0.113541 0.11355,-1.021914 0.11354,-1.021916 h 1.02191 1.02192 v 4.428298 4.428296 l -1.08469,0.0695 -1.08469,0.0695 0.0628,3.33693 0.0628,3.33692 h 1.02192 1.02191 l 0.11355,-1.02191 0.11354,-1.02191 1.06673,-0.0687 1.06674,-0.0687 0.0688,-1.06674 0.0688,-1.06674 1.02192,-0.11353 1.02192,-0.11353 0.0686,-1.06575 0.0686,-1.06576 -1.0906,-0.0697 -1.09062,-0.0697 v -1.02192 -1.02192 l 1.07869,-0.0692 1.07869,-0.0692 v -1.11058 -1.110573 l -1.07869,-0.06921 -1.07869,-0.06921 v -2.157376 -2.157375 h 2.15738 2.15738 v 1.021914 1.021915 l -1.02192,0.113541 -1.02191,0.113541 -0.0686,1.065762 -0.0686,1.065757 1.0906,0.06969 1.09061,0.06971 v 1.021914 1.02191 l -1.07868,0.0692 -1.0787,0.0692 v 1.11058 1.11057 l 1.0787,0.0692 1.07868,0.0692 v 4.42829 4.42831 l -2.15738,0.11353 -2.15739,0.11353 -0.11353,1.02192 -0.11353,1.0219 -1.02191,0.11353 -1.02191,0.11353 v 1.02192 1.02192 l 1.02191,0.11353 1.02191,0.11352 0.11353,1.02191 0.11353,1.02192 1.06577,0.0686 1.06575,0.0687 0.0698,-1.09061 0.0698,-1.09059 h 1.02192 1.02192 v 1.02191 1.0219 l -1.0787,0.0692 -1.07868,0.0692 v 1.11059 1.11057 l 1.07868,0.0692 1.0787,0.0692 0.0691,1.07269 0.0691,1.07269 3.33743,0.0628 3.3374,0.0627 0.11353,1.02192 0.11353,1.0219 1.06576,0.0686 1.06577,0.0686 0.0698,-1.0906 0.0698,-1.09061 2.21416,-0.0649 2.21413,-0.0649 v -2.27514 -2.27516 l -1.07867,0.0692 -1.07871,0.0692 -0.11353,1.0219 -0.11353,1.02192 h -1.02192 -1.02191 l -0.11353,-2.15737 -0.11353,-2.15737 h -1.02191 -1.02193 l -0.11353,2.15737 -0.11353,2.15737 h -2.15737 -2.15738 v -1.02192 -1.0219 l 1.02189,-0.11353 1.02193,-0.11353 v -1.02191 -1.02192 l -1.02195,-0.11353 -1.02192,-0.11353 v -2.15737 -2.15738 h 3.29284 3.29283 l 0.11353,1.02192 0.11353,1.02192 1.06576,0.0687 1.06575,0.0687 0.0698,-1.0906 0.0698,-1.09061 h 2.15737 2.15737 l 0.11353,1.02191 0.11353,1.02192 1.02192,0.11353 1.02191,0.11353 v 4.42828 4.42831 l -2.22626,0.0652 -2.22624,0.0652 0.0689,1.07032 0.0688,1.07031 1.02191,0.11352 1.02192,0.11353 v 1.02192 1.02192 h -2.15738 -2.15738 l -0.11353,-1.02192 -0.11353,-1.02192 -1.07031,-0.0688 -1.07032,-0.0688 -0.0653,2.22626 -0.0652,2.22623 h -1.02191 -1.02192 l -0.11352,-1.02191 -0.11353,-1.02192 -1.02192,-0.11353 -1.02193,-0.11353 -0.11353,-1.02192 -0.11353,-1.02192 h -1.02193 -1.02191 v 2.15738 2.15737 l 1.02191,0.11353 1.02193,0.11353 0.0687,1.06672 0.0687,1.06673 1.06673,0.0687 1.06673,0.0687 0.11353,1.02192 0.11353,1.02193 h 1.02193 1.0219 l 0.11353,-1.02193 0.11353,-1.02192 h 1.02192 1.02192 l 0.11353,1.02192 0.11353,1.02193 1.07032,0.0688 1.07032,0.0688 0.0652,-2.22626 0.0652,-2.22624 h 1.02192 1.02191 l 0.11353,1.0219 0.11353,1.02194 1.02192,0.11353 1.02192,0.11353 v 2.15736 2.15739 h -1.02192 -1.02192 l -0.11353,-1.02193 -0.11353,-1.02191 -1.06576,-0.0686 -1.06577,-0.0686 -0.0696,1.09059 -0.0698,1.09058 -2.15739,0.11353 -2.15736,0.11353 -0.0686,1.06578 -0.0686,1.06575 1.0906,0.0696 1.09061,0.0698 v 1.02192 1.02192 h -1.02191 -1.02193 l -0.0698,-1.0906 -0.0696,-1.0906 -1.06576,0.0686 -1.06576,0.0686 -0.11353,1.02191 -0.11353,1.0219 h -1.02199 -1.02191 l -0.11352,-1.0219 -0.11353,-1.02191 -2.20139,-0.0647 -2.20138,-0.0648 -0.0695,1.08674 -0.0695,1.08675 -5.51255,0.0608 c -4.46343,0.0493 -5.534967,10e-4 -5.630327,-0.24608 z m 11.256447,-3.09935 v -1.12725 l 2.21415,-0.0649 2.21415,-0.0651 0.0648,-2.20582 0.0649,-2.20582 -2.22229,-0.0652 -2.22227,-0.0652 -0.11353,-1.02192 -0.11352,-1.02191 h -1.02192 -1.02192 l -0.0649,2.21414 -0.0649,2.21414 h -1.1148 -1.11479 l -0.0692,1.0787 -0.0692,1.07869 -1.02191,0.11353 c -0.96616,0.10729 -1.02589,0.155 -1.0947,0.8732 -0.13438,1.40278 -0.14692,1.39771 3.47204,1.39771 h 3.29997 z m -2.11953,-1.29508 c -0.0833,-0.0832 -0.1514,-0.59984 -0.1514,-1.14792 v -0.9965 l 1.07869,0.0692 1.0787,0.0692 0.0692,1.07869 0.0692,1.07869 h -0.99652 c -0.54808,0 -1.06465,-0.0681 -1.14789,-0.15139 z m 2.07097,-11.26 0.0649,-2.21414 h -1.1437 -1.14368 v -1.14791 -1.1479 l -1.07869,0.0692 -1.07868,0.0692 -0.0692,1.07868 -0.0692,1.0787 h -1.11068 -1.11058 l -0.0692,-1.0787 -0.0692,-1.07868 -2.21415,-0.0649 -2.214137,-0.0649 v 1.14367 1.14368 h 2.258477 2.25848 l 0.0692,1.07869 0.0692,1.0787 1.07869,0.0692 1.07868,0.0692 v 1.13123 1.13124 l 2.21416,-0.0649 2.21415,-0.0649 z m -4.49329,-1.06625 v -1.14789 h 1.14791 1.1479 l -0.0692,1.07869 -0.0692,1.07869 -1.0787,0.0692 -1.07869,0.0692 z m 20.32475,-6.8252 v -1.02191 l -1.06674,-0.0687 -1.06673,-0.0687 -0.0687,-1.06674 -0.0687,-1.06673 -1.09165,-0.0698 -1.09167,-0.0698 0.0697,1.09166 0.0698,1.09167 1.07867,0.0692 1.0787,0.0692 v 1.13545 1.13546 l 1.07868,-0.0692 1.07868,-0.0692 z m -18.16737,-9.08369 v -1.02192 l -1.0787,-0.0692 -1.07868,-0.0692 v 0.9965 c 0,0.54809 0.0729,1.06944 0.16208,1.15859 0.0892,0.0892 0.57454,0.13172 1.07868,0.0946 l 0.91662,-0.0674 z m 16.10547,32.62252 c -0.0701,-0.18271 -0.0947,-0.67404 -0.0547,-1.09185 0.0707,-0.73818 0.10177,-0.75966 1.09471,-0.75966 h 1.0219 v 1.02191 1.0219 l -0.96721,0.0699 c -0.68788,0.0496 -1.00403,-0.026 -1.09469,-0.26225 z M 83.16522,76.429443 c -0.06669,-0.17381 -0.09132,-1.17608 -0.05469,-2.22731 l 0.06656,-1.9113 h 1.021915 1.021917 v 2.15738 2.15736 l -0.967221,0.07 c -0.667517,0.0482 -1.004795,-0.028 -1.088484,-0.24607 z m -2.268161,-13.61834 c -0.06088,-0.15864 -0.08373,-3.71115 -0.05079,-7.89444 l 0.05989,-7.605979 h 7.834682 7.834684 v 7.834679 7.8347 l -7.783891,0.0598 c -6.127747,0.0471 -7.807442,-10e-4 -7.894587,-0.2287 z m 13.407554,-7.66574 v -5.563757 h -5.563761 -5.563759 l -0.06108,5.331967 c -0.0336,2.93259 -0.01059,5.46365 0.0512,5.62459 0.08825,0.22998 1.292146,0.27959 5.624848,0.23179 l 5.512561,-0.0608 z m -8.868228,3.11733 c -0.06365,-0.16587 -0.08707,-1.67602 -0.05205,-3.35588 l 0.06367,-3.054283 h 3.292837 3.292839 v 3.292833 3.29285 l -3.240788,0.0631 c -2.529718,0.0492 -3.266181,-0.004 -3.356519,-0.23855 z m 27.253595,4.54841 c -0.0608,-0.15864 -0.0839,-3.71115 -0.0508,-7.89444 l 0.0599,-7.605979 h 7.83467 7.83468 v 7.834679 7.8347 l -7.78388,0.0598 c -6.12774,0.0471 -7.80744,-10e-4 -7.89458,-0.2287 z m 13.40755,-7.66574 V 49.581606 H 120.53377 114.97 l -0.0612,5.331967 c -0.0335,2.93259 -0.0106,5.46365 0.0513,5.62459 0.0882,0.22998 1.29214,0.27959 5.62484,0.23179 l 5.51256,-0.0608 z m -8.86824,3.11733 c -0.0638,-0.16587 -0.0871,-1.67602 -0.052,-3.35588 l 0.0638,-3.054283 h 3.29285 3.29283 v 3.292833 3.29285 l -3.2408,0.0631 c -2.52972,0.0492 -3.26617,-0.004 -3.35652,-0.23855 z"
       style="fill:#000000;fill-opacity:1;stroke:#000000;stroke-width:0.22705883;stroke-miterlimit:4;stroke-dasharray:none" />
    <path
       inkscape:connector-curvature="0"
       id="path118"
       d="m 80.897059,94.604023 c -0.06088,-0.15866 -0.08373,-3.71116 -0.05079,-7.89445 l 0.05989,-7.60597 h 7.834682 7.834684 v 7.83469 7.83467 l -7.783891,0.0598 c -6.127747,0.0469 -7.807442,-0.001 -7.894587,-0.22872 z m 13.407554,-7.66573 v -5.56378 h -5.563761 -5.563759 l -0.06108,5.33198 c -0.0336,2.93259 -0.01059,5.46365 0.0512,5.62459 0.08825,0.22999 1.292146,0.27959 5.624848,0.23179 l 5.512561,-0.0608 z m -8.868228,3.11732 c -0.06365,-0.16587 -0.08707,-1.67602 -0.05205,-3.35587 l 0.06367,-3.0543 h 3.292837 3.292839 v 3.29285 3.29284 l -3.240788,0.0631 c -2.529718,0.0492 -3.266181,-0.004 -3.356519,-0.23856 z m 13.621798,4.5321 c -0.0648,-0.1688 -0.0878,-1.167 -0.0512,-2.21818 l 0.0666,-1.91131 1.021907,-0.11353 1.02191,-0.11353 0.0687,-1.06575 0.0687,-1.06577 -1.0906,-0.0696 -1.090597,-0.0698 v -1.02189 -1.02192 h 1.021907 1.02192 l 0.0692,1.07867 0.0692,1.07868 h 2.25848 2.25848 v -3.40024 -3.40032 l -3.34961,-0.0628 -3.349607,-0.0628 -0.0649,-2.21019 -0.065,-2.2102 -5.612354,-0.0607 -5.612359,-0.0607 -0.06281,-3.34357 -0.06281,-3.34358 -3.343574,-0.0628 -3.343574,-0.0628 v -2.15737 -2.15738 h 2.157375 2.157378 l 0.113541,1.02192 0.113541,1.02191 1.065759,0.0687 1.065759,0.0687 0.06971,-1.0906 0.06969,-1.09062 h 1.021913 1.021916 v 1.02192 1.02192 l -1.078689,0.0692 -1.078687,0.0692 v 1.11479 1.11481 l 2.214149,0.0651 2.21415,0.0651 0.113541,2.15738 0.113553,2.15737 3.349609,0.0628 3.349603,0.0628 v -1.13329 -1.13331 l -2.214142,-0.0649 -2.214148,-0.0649 v -1.02186 -1.02191 h 2.157375 2.157375 l 0.0697,1.0906 0.0697,1.0906 1.065757,-0.0686 1.06576,-0.0686 v -3.29289 -3.29283 l -1.06576,-0.0687 -1.065757,-0.0687 -0.0697,1.0906 -0.0697,1.09061 H 96.6891 94.531725 v -1.02191 -1.02191 l 2.209376,-0.0649 2.209372,-0.0649 0.0615,-4.47689 0.0616,-4.47691 1.090597,-0.0697 1.0906,-0.0697 -0.0687,-1.06576 -0.0687,-1.06576 -1.02191,-0.1136 -1.021917,-0.11354 V 51.73986 49.582485 l 1.021917,-0.113541 1.02191,-0.113542 0.11355,-1.021914 0.11354,-1.021915 h 1.02191 1.02192 v 4.428298 4.428302 l -1.08469,0.0695 -1.08469,0.0695 0.0628,3.33692 0.0628,3.33692 h 1.02192 1.02191 l 0.11355,-1.02191 0.11354,-1.02191 1.06673,-0.0687 1.06674,-0.0687 0.0688,-1.06674 0.0688,-1.06674 1.02192,-0.11353 1.02192,-0.11353 0.0686,-1.06575 0.0686,-1.06576 -1.0906,-0.0697 -1.09062,-0.0697 v -1.02192 -1.02191 l 1.07869,-0.0692 1.07869,-0.0692 v -1.11057 -1.110579 l -1.07869,-0.06921 -1.07869,-0.06921 v -2.157376 -2.157376 h 2.15738 2.15738 v 1.021914 1.021916 l -1.02192,0.113541 -1.02191,0.113541 -0.0686,1.065761 -0.0686,1.065758 1.0906,0.06969 1.09061,0.06971 v 1.02191 1.02192 l -1.07868,0.0692 -1.0787,0.0692 v 1.11058 1.11057 l 1.0787,0.0692 1.07868,0.0692 v 4.42829 4.42831 l -2.15738,0.11353 -2.15739,0.11353 -0.11353,1.02192 -0.11353,1.0219 -1.02191,0.11353 -1.02191,0.11353 v 1.02192 1.02192 l 1.02191,0.11353 1.02191,0.11352 0.11353,1.02191 0.11353,1.02192 1.06577,0.0686 1.06575,0.0687 0.0698,-1.09061 0.0698,-1.09059 h 1.02192 1.02192 v 1.02191 1.0219 l -1.0787,0.0692 -1.07868,0.0692 v 1.11059 1.11057 l 1.07868,0.0692 1.0787,0.0692 0.0691,1.07269 0.0691,1.07269 3.33743,0.0628 3.3374,0.0627 0.11353,1.02192 0.11353,1.0219 1.06576,0.0686 1.06577,0.0686 0.0698,-1.0906 0.0698,-1.09061 2.21416,-0.0649 2.21413,-0.0649 v -2.27514 -2.27516 l -1.07867,0.0692 -1.0787,0.0692 -0.11353,1.0219 -0.11353,1.02192 h -1.02191 -1.02192 l -0.11353,-2.15737 -0.11353,-2.15737 h -1.02191 -1.02193 l -0.11353,2.15737 -0.11352,2.15737 h -2.15738 -2.15738 v -1.02192 -1.0219 l 1.0219,-0.11353 1.02193,-0.11353 v -1.02191 -1.02192 l -1.02196,-0.11353 -1.02191,-0.11353 v -2.15737 -2.15738 h 3.29283 3.29284 l 0.11353,1.02192 0.11352,1.02192 1.06576,0.0687 1.06575,0.0687 0.0698,-1.0906 0.0698,-1.09061 h 2.15738 2.15736 l 0.11353,1.02191 0.11353,1.02192 1.02192,0.11353 1.02192,0.11353 v 4.42828 4.42831 l -2.22626,0.0652 -2.22625,0.0652 0.0689,1.07032 0.0688,1.07032 1.02191,0.11353 1.02192,0.11353 v 1.02191 1.02192 h -2.15738 -2.15738 l -0.11352,-1.02192 -0.11353,-1.02191 -1.07032,-0.0688 -1.07032,-0.0688 -0.0653,2.22625 -0.0652,2.22624 h -1.02191 -1.02191 l -0.11353,-1.0219 -0.11353,-1.02193 -1.02192,-0.11353 -1.02193,-0.11353 -0.11353,-1.02192 -0.11353,-1.02192 h -1.02193 -1.0219 v 2.15738 2.15738 l 1.0219,0.11353 1.02193,0.11352 0.0687,1.06672 0.0687,1.06673 1.06673,0.0687 1.06673,0.0687 0.11353,1.02192 0.11353,1.02193 h 1.02193 1.02191 l 0.11353,-1.02193 0.11353,-1.02192 h 1.02191 1.02192 l 0.11353,1.02192 0.11353,1.02193 1.07032,0.0688 1.07033,0.0688 0.0652,-2.22626 0.0652,-2.22624 h 1.02192 1.02191 l 0.11353,1.0219 0.11353,1.02193 1.02192,0.11353 1.02192,0.11353 v 2.15737 2.15738 h -1.02192 -1.02192 l -0.11353,-1.02192 -0.11353,-1.0219 -1.06576,-0.0686 -1.06576,-0.0686 -0.0696,1.09059 -0.0698,1.09059 -2.15738,0.11352 -2.15737,0.11353 -0.0686,1.06578 -0.0686,1.06575 1.0906,0.0696 1.09062,0.0698 v 1.02191 1.02191 h -1.02192 -1.02193 l -0.0698,-1.0906 -0.0696,-1.0906 -1.06576,0.0686 -1.06576,0.0686 -0.11353,1.02191 -0.11353,1.0219 h -1.02199 -1.0219 l -0.11353,-1.0219 -0.11353,-1.02191 -2.20139,-0.0647 -2.20138,-0.0648 -0.0695,1.08675 -0.0695,1.08675 -5.51256,0.0608 c -4.46343,0.0493 -5.534967,0.001 -5.630327,-0.24609 z m 11.256447,-3.09935 v -1.12725 l 2.21415,-0.0649 2.21415,-0.0651 0.0648,-2.20582 0.0649,-2.20582 -2.22229,-0.0652 -2.22227,-0.0652 -0.11353,-1.02192 -0.11352,-1.02191 h -1.02192 -1.02192 l -0.0649,2.21414 -0.0649,2.21414 h -1.1148 -1.11479 l -0.0692,1.0787 -0.0692,1.07869 -1.02191,0.11353 c -0.96616,0.10729 -1.02589,0.155 -1.0947,0.8732 -0.13438,1.40278 -0.14692,1.39771 3.47204,1.39771 h 3.29997 z m -2.11953,-1.29508 c -0.0833,-0.0832 -0.1514,-0.59984 -0.1514,-1.14792 v -0.9965 l 1.07869,0.0692 1.0787,0.0692 0.0692,1.07869 0.0692,1.07869 h -0.99652 c -0.54808,0 -1.06465,-0.0681 -1.14789,-0.15139 z m 2.07097,-11.26 0.0649,-2.21414 h -1.1437 -1.14368 v -1.14791 -1.1479 l -1.07869,0.0692 -1.07868,0.0692 -0.0692,1.07868 -0.0692,1.0787 h -1.11068 -1.11058 l -0.0692,-1.0787 -0.0692,-1.07868 -2.21415,-0.0649 -2.214137,-0.0649 v 1.14367 1.14368 h 2.258477 2.25848 l 0.0692,1.07869 0.0692,1.0787 1.07869,0.0692 1.07868,0.0692 v 1.13123 1.13124 l 2.21416,-0.0649 2.21415,-0.0649 z m -4.49329,-1.06625 v -1.14789 h 1.14791 1.1479 l -0.0692,1.07869 -0.0692,1.07869 -1.0787,0.0692 -1.07869,0.0692 z m 20.32475,-6.8252 v -1.02191 l -1.06674,-0.0687 -1.06673,-0.0687 -0.0687,-1.06674 -0.0687,-1.06673 -1.09165,-0.0698 -1.09167,-0.0698 0.0697,1.09166 0.0698,1.09167 1.07867,0.0692 1.0787,0.0692 v 1.13545 1.13546 l 1.07868,-0.0692 1.07868,-0.0692 z m -18.16737,-9.08369 v -1.02192 l -1.0787,-0.0692 -1.07868,-0.0692 v 0.9965 c 0,0.54809 0.0729,1.06944 0.16208,1.15859 0.0892,0.0892 0.57454,0.13172 1.07868,0.0946 l 0.91662,-0.0674 z m 16.10547,32.62252 c -0.0701,-0.18271 -0.0947,-0.67404 -0.0547,-1.09185 0.0707,-0.73818 0.10177,-0.75966 1.09471,-0.75966 h 1.0219 v 1.02191 1.0219 l -0.96721,0.0699 c -0.68788,0.0496 -1.00403,-0.026 -1.09469,-0.26224 z M 83.16522,76.429443 c -0.06669,-0.17381 -0.09132,-1.17608 -0.05469,-2.22731 l 0.06656,-1.9113 h 1.021915 1.021917 v 2.15738 2.15736 l -0.967221,0.07 c -0.667517,0.0482 -1.004795,-0.028 -1.088484,-0.24607 z m -2.268161,-13.61834 c -0.06088,-0.15864 -0.08373,-3.71115 -0.05079,-7.89444 l 0.05989,-7.605975 h 7.834682 7.834684 v 7.834685 7.83469 l -7.783891,0.0598 c -6.127747,0.0471 -7.807442,-10e-4 -7.894587,-0.2287 z m 13.407554,-7.66573 V 49.58161 h -5.563761 -5.563759 l -0.06108,5.331973 c -0.0336,2.93258 -0.01059,5.46364 0.0512,5.62458 0.08825,0.22998 1.292146,0.27959 5.624848,0.23179 l 5.512561,-0.0608 z m -8.868228,3.11732 c -0.06365,-0.16587 -0.08707,-1.67601 -0.05205,-3.35587 l 0.06367,-3.054289 h 3.292837 3.292839 v 3.292839 3.29284 l -3.240788,0.0631 c -2.529718,0.0492 -3.266181,-0.004 -3.356519,-0.23855 z m 27.253595,4.54841 c -0.0608,-0.15864 -0.0839,-3.71115 -0.0508,-7.89444 l 0.0599,-7.605975 h 7.83467 7.83468 v 7.834685 7.83469 l -7.78388,0.0598 c -6.12774,0.0471 -7.80744,-10e-4 -7.89458,-0.2287 z m 13.40755,-7.66573 V 49.58161 H 120.53377 114.97 l -0.0612,5.331973 c -0.0335,2.93258 -0.0106,5.46364 0.0513,5.62458 0.0882,0.22998 1.29214,0.27959 5.62484,0.23179 l 5.51256,-0.0608 z m -8.86824,3.11732 c -0.0638,-0.16587 -0.0871,-1.67601 -0.052,-3.35587 l 0.0638,-3.054289 h 3.29285 3.29283 v 3.292839 3.29284 l -3.2408,0.0631 c -2.52972,0.0492 -3.26617,-0.004 -3.35652,-0.23855 z"
       style="fill:#ffffff;fill-opacity:1;stroke:#ffffff;stroke-width:0.22705883;stroke-miterlimit:4;stroke-dasharray:none" />
    <path
       style="fill:#ffffff;stroke:#37483e;stroke-width:0.29609749px;stroke-linecap:butt;stroke-linejoin:miter;stroke-opacity:1"
       d="m 84.777489,73.504023 7.215164,4.69082 11.920687,-8.0726 -6.587734,9.70896 11.188724,10.90891 3.86898,-9.49076 6.27406,-27.16319 z"
       id="path4615"
       inkscape:connector-curvature="0" />
    <path
       inkscape:connector-curvature="0"
       id="path88"
       d="m 110.54707,92.874083 c 0.0214,-0.0362 -0.0889,-0.11247 -0.24531,-0.16945 -0.21396,-0.0781 -1.37099,-1.2349 -4.67916,-4.67813 -3.05107,-3.17563 -4.43067,-4.56001 -4.51184,-4.52753 -0.0642,0.0259 -0.98432,1.32126 -2.044427,2.87886 -2.751374,4.04259 -3.00615,4.3956 -3.337409,4.62428 -0.582612,0.40223 -1.091341,0.19071 -1.275118,-0.53017 -0.042,-0.16472 -0.3908,-2.89833 -0.775106,-6.07473 -0.418988,-3.46274 -0.735811,-5.8132 -0.791259,-5.87013 -0.05082,-0.0521 -2.185729,-0.74787 -4.744117,-1.54589 -2.5584,-0.798 -4.797059,-1.50659 -4.974824,-1.57464 -0.377482,-0.14446 -0.778353,-0.58541 -0.844141,-0.92845 -0.03271,-0.17075 -0.06494,-0.20957 -0.111059,-0.1338 -0.04035,0.0662 -0.06494,-0.0456 -0.06494,-0.2943 0,-0.24868 0.02471,-0.36052 0.06494,-0.29434 0.04577,0.0756 0.07871,0.0346 0.112,-0.13958 0.02612,-0.13642 0.176765,-0.37331 0.337624,-0.53104 0.342141,-0.3354 36.529246,-20.81583 36.888216,-20.877219 0.20222,-0.03459 0.21165,-0.04706 0.0768,-0.102 -0.10388,-0.04235 -0.0165,-0.064 0.26926,-0.06706 0.25775,-0.0024 0.3829,0.02212 0.32056,0.06318 -0.0727,0.048 -0.0352,0.08165 0.12898,0.115882 0.2978,0.06224 0.77342,0.558347 0.833,0.869037 0.0329,0.17121 0.0651,0.21027 0.11117,0.13451 0.0391,-0.0642 0.0622,0.0848 0.0584,0.37455 -0.006,0.36112 -0.022,0.4312 -0.0681,0.28071 -0.0592,-0.19268 -0.0618,-0.19346 -0.0693,-0.0198 -0.009,0.22237 -8.97211,37.66424 -9.09622,37.99974 -0.18656,0.50428 -0.61966,0.91375 -0.98358,0.92989 l -0.19223,0.008 0.19223,0.0642 c 0.15064,0.0502 0.104,0.0658 -0.21597,0.0722 -0.22453,0.005 -0.39069,-0.0216 -0.36932,-0.0576 z m -0.34598,-4.68687 c 0.24015,-0.7809 7.54375,-31.46682 7.51078,-31.55645 -0.0216,-0.0587 -0.0816,-0.10682 -0.13338,-0.10682 -0.0517,0 -6.852,3.81705 -15.11179,8.48233 -12.69307,7.16928 -15.014635,8.50682 -14.997388,8.64062 0.01753,0.13559 0.504365,0.31072 3.403435,1.22394 1.988965,0.62656 3.478036,1.05536 3.613671,1.04059 0.1612,-0.0175 2.992965,-2.08488 9.405112,-6.8662 5.04593,-3.76255 9.18674,-6.82822 9.20177,-6.81255 0.0151,0.0156 -2.61709,3.86127 -5.84913,8.54574 -3.23203,4.68449 -5.87643,8.58218 -5.87643,8.66147 0,0.18372 8.44842,9.00809 8.6243,9.00809 0.0778,0 0.16068,-0.10353 0.209,-0.26069 z"
       style="fill:#37483e;fill-opacity:1;stroke:#37483e;stroke-width:0.07853122;stroke-opacity:1" />
  </g>
</svg>
