<?xml version="1.0" encoding="UTF-8" standalone="no"?>
<!-- Created with Inkscape (http://www.inkscape.org/) -->

<svg
   xmlns:dc="http://purl.org/dc/elements/1.1/"
   xmlns:cc="http://creativecommons.org/ns#"
   xmlns:rdf="http://www.w3.org/1999/02/22-rdf-syntax-ns#"
   xmlns:svg="http://www.w3.org/2000/svg"
   xmlns="http://www.w3.org/2000/svg"
   xmlns:sodipodi="http://sodipodi.sourceforge.net/DTD/sodipodi-0.dtd"
   xmlns:inkscape="http://www.inkscape.org/namespaces/inkscape"
   width="210mm"
   height="297mm"
   viewBox="0 0 210 297"
   version="1.1"
   id="svg8"
   inkscape:version="0.92.1 r15371"
   sodipodi:docname="Logo.svg">
  <defs
     id="defs2" />
  <sodipodi:namedview
     id="base"
     pagecolor="#ffffff"
     bordercolor="#666666"
     borderopacity="1.0"
     inkscape:pageopacity="0.0"
     inkscape:pageshadow="2"
     inkscape:zoom="0.98016825"
     inkscape:cx="425.09503"
     inkscape:cy="795.84566"
     inkscape:document-units="mm"
     inkscape:current-layer="layer1"
     showgrid="false"
     inkscape:window-width="1920"
     inkscape:window-height="1027"
     inkscape:window-x="0"
     inkscape:window-y="25"
     inkscape:window-maximized="1" />
  <metadata
     id="metadata5">
    <rdf:RDF>
      <cc:Work
         rdf:about="">
        <dc:format>image/svg+xml</dc:format>
        <dc:type
           rdf:resource="http://purl.org/dc/dcmitype/StillImage" />
        <dc:title></dc:title>
      </cc:Work>
    </rdf:RDF>
  </metadata>
  <g
     inkscape:label="Layer 1"
     inkscape:groupmode="layer"
     id="layer1">
    <g
       id="g4723"
       style="opacity:0.91"
       inkscape:export-filename="/home/daielchom/Documentos/Diplomado-Dunti/Modulo_android/Proyecto_Final/QRTracker/webversion/src/logo.png"
       inkscape:export-xdpi="200"
       inkscape:export-ydpi="200">
      <ellipse
         ry="41.513439"
         rx="42.433403"
         cy="108.74357"
         cx="97.608322"
         id="path138"
         style="fill:#c87137;fill-opacity:1;stroke:#28170b;stroke-width:2.27679825;stroke-miterlimit:4;stroke-dasharray:none" />
      <ellipse
         ry="17.574892"
         rx="36.299541"
         cy="100.36349"
         cx="96.361542"
         id="path4617-3"
         style="fill:#d38d5f;fill-opacity:1;stroke:none;stroke-width:5.37465334;stroke-miterlimit:4;stroke-dasharray:none" />
      <ellipse
         ry="5.6666713"
         rx="20.202913"
         cy="76.547043"
         cx="97.511292"
         id="path4617"
         style="fill:#e9c6af;fill-opacity:1;stroke:none;stroke-width:2.27679825;stroke-miterlimit:4;stroke-dasharray:none" />
      <ellipse
         ry="2.1352675"
         rx="3.367151"
         cy="82.131592"
         cx="120.91711"
         id="path4617-6"
         style="fill:#f4e3d7;fill-opacity:1;stroke:none;stroke-width:0.57057267;stroke-miterlimit:4;stroke-dasharray:none" />
      <path
         sodipodi:nodetypes="cc"
         inkscape:connector-curvature="0"
         id="path4649"
         d="m 71.066828,76.300668 c -15.060925,33.393222 15.220503,89.626362 56.173962,63.072512 0,0 -31.207757,26.93723 -61.758507,-2.95653 0,0 -25.787461,-33.01451 5.584545,-60.115982 z"
         style="opacity:0.21000001;fill:#000000;stroke:none;stroke-width:0.22767983px;stroke-linecap:butt;stroke-linejoin:miter;stroke-opacity:1" />
      <path
         style="fill:#000000;stroke:#2b1100;stroke-width:0.26874828"
         d="m 69.557548,136.57769 c -0.07205,-0.18775 -0.09909,-4.39191 -0.0601,-9.34253 l 0.07088,-9.00116 h 9.271814 9.271817 v 9.27182 9.27181 l -9.211706,0.0707 c -7.251773,0.0556 -9.239579,-0.002 -9.342708,-0.27068 z m 15.86693,-9.07187 v -6.58434 h -6.584334 -6.584331 l -0.07229,6.31003 c -0.03976,3.47051 -0.0125,6.46585 0.06059,6.65632 0.10444,0.27217 1.529167,0.33087 6.656625,0.2743 l 6.523742,-0.072 z m -10.494947,3.68914 c -0.07532,-0.1963 -0.103047,-1.98346 -0.0616,-3.97145 l 0.07535,-3.61454 h 3.896851 3.896851 v 3.89685 3.89685 l -3.835253,0.0746 c -2.993749,0.0582 -3.865304,-0.004 -3.972212,-0.28231 z m 16.120474,5.36344 c -0.07666,-0.19977 -0.10392,-1.38106 -0.06059,-2.62508 l 0.07878,-2.2619 1.209368,-0.13437 1.209366,-0.13438 0.08129,-1.26125 0.08129,-1.26125 -1.290653,-0.0825 -1.290655,-0.0825 v -1.20935 -1.20937 h 1.209367 1.209367 l 0.08191,1.27654 0.08191,1.27654 h 2.672757 2.672755 v -4.02396 -4.02404 l -3.964033,-0.0744 -3.964037,-0.0744 -0.07687,-2.61562 -0.07687,-2.61561 -6.641846,-0.0719 -6.641845,-0.0719 -0.07433,-3.95689 -0.07433,-3.9569 -3.956893,-0.0744 -3.956894,-0.0744 v -2.55311 -2.55311 h 2.553108 2.553109 l 0.134374,1.20937 0.134374,1.20937 1.261254,0.0813 1.261253,0.0813 0.08249,-1.29065 0.08248,-1.29066 h 1.209365 1.209369 v 1.20937 1.20937 l -1.276556,0.0819 -1.276553,0.0819 v 1.31928 1.31929 l 2.620295,0.077 2.620296,0.077 0.134374,2.55311 0.134375,2.55311 3.964036,0.0744 3.964038,0.0744 v -1.34118 -1.3412 l -2.620297,-0.0768 -2.620294,-0.0768 v -1.2093 -1.20936 h 2.553107 2.553109 l 0.0825,1.29065 0.08249,1.29065 1.261252,-0.0812 1.261254,-0.0812 v -3.8969 -3.89685 l -1.261254,-0.0813 -1.261252,-0.0813 -0.08249,1.29065 -0.0825,1.29066 H 88.24633 85.693222 v -1.20935 -1.20937 l 2.614648,-0.0768 2.614646,-0.0768 0.07284,-5.298108 0.07284,-5.298111 1.290655,-0.08249 1.290654,-0.08248 -0.08129,-1.261253 -0.08129,-1.261253 -1.209366,-0.134435 -1.209368,-0.134374 V 85.85034 83.297233 l 1.209368,-0.134375 1.209366,-0.134374 0.134374,-1.209366 0.134375,-1.209368 h 1.209367 1.209368 v 5.24059 5.240593 l -1.283652,0.0822 -1.283655,0.08221 0.07429,3.949021 0.07428,3.949018 h 1.209368 1.209367 l 0.134374,-1.20936 0.134375,-1.20937 1.262411,-0.0813 1.26241,-0.0813 0.0814,-1.262415 0.0814,-1.262408 1.209363,-0.134374 1.20938,-0.134373 0.0812,-1.261253 0.0812,-1.261253 -1.29066,-0.08249 -1.290663,-0.08248 v -1.20937 -1.209367 l 1.276553,-0.08191 1.27656,-0.08191 v -1.314292 -1.314292 l -1.27656,-0.08191 -1.276553,-0.08191 v -2.553109 -2.553108 h 2.553113 2.55311 v 1.209367 1.209367 l -1.20937,0.134374 -1.20936,0.134373 -0.0812,1.261256 -0.0812,1.261252 1.29065,0.08248 1.29066,0.08249 v 1.209368 1.209367 l -1.27655,0.08191 -1.27656,0.08191 v 1.314293 1.314291 l 1.27656,0.08192 1.27655,0.08191 v 5.240586 5.240598 l -2.55311,0.13437 -2.553113,0.13438 -0.13437,1.20937 -0.13438,1.20936 -1.20937,0.13438 -1.209366,0.13437 v 1.20937 1.20937 l 1.209366,0.13436 1.20937,0.13438 0.13438,1.20936 0.13437,1.20937 1.261253,0.0812 1.26125,0.0813 0.0825,-1.29066 0.0825,-1.29065 h 1.20937 1.20937 v 1.20937 1.20935 l -1.27656,0.0819 -1.27655,0.0819 v 1.3143 1.3143 l 1.27655,0.0819 1.27656,0.0819 0.0817,1.26945 0.0817,1.26945 3.94961,0.0743 3.94959,0.0742 0.13437,1.20937 0.13438,1.20937 1.26126,0.0812 1.26125,0.0812 0.0825,-1.29065 0.0825,-1.29066 2.6203,-0.0768 2.62028,-0.0768 v -2.69248 -2.69248 l -1.27654,0.0819 -1.27656,0.0819 -0.13437,1.20936 -0.13437,1.20937 h -1.20937 -1.20937 l -0.13437,-2.5531 -0.13439,-2.55311 h -1.20936 -1.20938 l -0.13437,2.55311 -0.13436,2.5531 h -2.5531 -2.55311 v -1.20937 -1.20936 l 1.20935,-0.13437 1.20938,-0.13438 v -1.20936 -1.20937 l -1.20941,-0.13437 -1.20937,-0.13438 v -2.55311 -2.55311 h 3.89685 3.89684 l 0.13439,1.20937 0.13437,1.20937 1.26125,0.0813 1.26125,0.0813 0.0825,-1.29065 0.0825,-1.29066 h 2.55311 2.5531 l 0.13438,1.20936 0.13438,1.20937 1.20937,0.13438 1.20937,0.13437 v 5.24058 5.2406 l -2.63462,0.0771 -2.63462,0.0771 0.0816,1.26664 0.0814,1.26665 1.20936,0.13437 1.20937,0.13439 v 1.20937 1.20937 h -2.55311 -2.55311 l -0.13436,-1.20937 -0.13438,-1.20937 -1.26665,-0.0815 -1.26665,-0.0814 -0.0772,2.63461 -0.0772,2.63461 h -1.20936 -1.20937 l -0.13437,-1.20936 -0.13436,-1.20938 -1.20937,-0.13437 -1.20938,-0.13437 -0.13438,-1.20936 -0.13436,-1.20937 h -1.20938 -1.20936 v 2.5531 2.55311 l 1.20936,0.13438 1.20938,0.13438 0.0813,1.2624 0.0813,1.2624 1.2624,0.0813 1.26241,0.0813 0.13438,1.20937 0.13436,1.20938 h 1.20939 1.20936 l 0.13437,-1.20938 0.13438,-1.20937 h 1.20937 1.20936 l 0.13438,1.20937 0.13437,1.20938 1.26664,0.0814 1.26667,0.0815 0.0772,-2.63463 0.0771,-2.6346 h 1.20937 1.20937 l 0.13436,1.20935 0.13437,1.20938 1.20937,0.13437 1.20937,0.13437 v 2.55311 2.5531 h -1.20937 -1.20937 l -0.13437,-1.20936 -0.13436,-1.20936 -1.26126,-0.0812 -1.26126,-0.0812 -0.0825,1.29064 -0.0825,1.29064 -2.55312,0.13439 -2.55309,0.13437 -0.0812,1.26127 -0.0812,1.26125 1.29065,0.0825 1.29066,0.0825 v 1.20937 1.20936 h -1.20937 -1.20938 l -0.0825,-1.29065 -0.0825,-1.29065 -1.26124,0.0812 -1.26127,0.0812 -0.13437,1.20937 -0.13437,1.20935 h -1.20946 -1.20936 l -0.13437,-1.20935 -0.13437,-1.20937 -2.60519,-0.0766 -2.60518,-0.0767 -0.0823,1.2861 -0.0823,1.2861 -6.523743,0.072 c -5.282167,0.0583 -6.550264,0.002 -6.663109,-0.29122 z m 13.321235,-3.66788 v -1.33401 l 2.6203,-0.0768 2.6203,-0.077 0.0767,-2.61044 0.0768,-2.61044 -2.62992,-0.0771 -2.6299,-0.0771 -0.13438,-1.20938 -0.13437,-1.20936 h -1.20937 -1.20937 l -0.0768,2.62029 -0.0768,2.62029 h -1.31929 -1.319283 l -0.0819,1.27656 -0.0819,1.27656 -1.20936,0.13438 c -1.143378,0.12702 -1.214072,0.18343 -1.295494,1.03338 -0.15903,1.66008 -0.17388,1.65409 4.108917,1.65409 h 3.90529 z m -2.50832,-1.53264 c -0.0986,-0.0984 -0.17917,-0.70986 -0.17917,-1.35848 v -1.17929 l 1.27656,0.0819 1.27656,0.0819 0.0819,1.27655 0.0819,1.27656 h -1.1793 c -0.64862,0 -1.25994,-0.0806 -1.35846,-0.17916 z m 2.45086,-13.32544 0.0768,-2.62029 h -1.35349 -1.35347 v -1.35847 -1.35847 l -1.27655,0.0819 -1.276553,0.0819 -0.0819,1.27656 -0.0819,1.27655 h -1.3143 -1.314294 l -0.08192,-1.27655 -0.08191,-1.27656 -2.620297,-0.0768 -2.620294,-0.0768 v 1.35346 1.35347 h 2.672757 2.672759 l 0.08191,1.27656 0.08191,1.27655 1.276559,0.0819 1.27655,0.0819 v 1.33874 1.33875 l 2.620293,-0.0768 2.6203,-0.0768 z m -5.317503,-1.26183 v -1.35846 h 1.358463 1.35847 l -0.0819,1.27656 -0.0819,1.27655 -1.27656,0.0819 -1.276553,0.0819 z m 24.052963,-8.07717 v -1.20937 l -1.26241,-0.0813 -1.2624,-0.0813 -0.0813,-1.26241 -0.0813,-1.2624 -1.29188,-0.0825 -1.29193,-0.0825 0.0825,1.29191 0.0826,1.29191 1.27654,0.0819 1.27656,0.0819 v 1.34374 1.34374 l 1.27655,-0.0819 1.27654,-0.0819 z M 101.54938,97.943512 v -1.20937 l -1.27655,-0.0819 -1.276553,-0.0819 v 1.17929 c 0,0.64862 0.0863,1.26561 0.19181,1.37112 0.1055,0.10552 0.67994,0.15588 1.276553,0.11201 l 1.08474,-0.0798 z m 19.05973,38.606528 c -0.083,-0.21621 -0.11213,-0.79767 -0.0647,-1.29212 0.0837,-0.87358 0.12039,-0.89901 1.29551,-0.89901 h 1.20935 v 1.20936 1.20936 l -1.14463,0.0827 c -0.81406,0.0588 -1.18821,-0.0307 -1.29549,-0.31035 z M 72.241762,115.06932 c -0.07893,-0.20569 -0.108064,-1.39182 -0.06472,-2.63588 l 0.07878,-2.26189 h 1.209367 1.209368 v 2.55311 2.5531 l -1.14464,0.0828 c -0.789961,0.0571 -1.189105,-0.0332 -1.288146,-0.29121 z M 69.557548,98.952932 c -0.07205,-0.18775 -0.09909,-4.391895 -0.0601,-9.34253 l 0.07088,-9.001158 h 9.271814 9.271817 v 9.271816 9.271822 l -9.211706,0.0707 c -7.251773,0.0557 -9.239579,-0.002 -9.342708,-0.27066 z m 15.86693,-9.071872 v -6.584333 h -6.584334 -6.584331 l -0.07229,6.310024 c -0.03976,3.470513 -0.0125,6.465851 0.06059,6.656311 0.10444,0.27217 1.529167,0.33088 6.656625,0.27431 l 6.523742,-0.072 z m -10.494947,3.689144 c -0.07532,-0.196299 -0.103047,-1.983453 -0.0616,-3.971452 l 0.07535,-3.614542 h 3.896851 3.896851 v 3.89685 3.896851 l -3.835253,0.0746 c -2.993749,0.05823 -3.865304,-0.0037 -3.972212,-0.282306 z m 32.252779,5.382728 c -0.072,-0.18775 -0.0992,-4.391895 -0.0601,-9.34253 l 0.0709,-9.001158 h 9.27181 9.27182 v 9.271816 9.271822 l -9.21171,0.0707 c -7.25176,0.0557 -9.23957,-0.002 -9.3427,-0.27066 z m 15.86693,-9.071872 v -6.584333 h -6.58433 -6.58434 l -0.0724,6.310024 c -0.0397,3.470513 -0.0125,6.465851 0.0607,6.656311 0.10446,0.27217 1.52916,0.33088 6.65661,0.27431 l 6.52375,-0.072 z m -10.49496,3.689144 c -0.0754,-0.196299 -0.10305,-1.983453 -0.0616,-3.971452 l 0.0754,-3.614542 h 3.89686 3.89685 v 3.89685 3.896851 l -3.83526,0.0746 c -2.99375,0.05823 -3.8653,-0.0037 -3.97222,-0.282306 z"
         id="path118"
         inkscape:connector-curvature="0" />
    </g>
    <g
       id="g4748"
       inkscape:export-filename="/home/daielchom/Documentos/Diplomado-Dunti/Modulo_android/Proyecto_Final/QRTracker/webversion/src/logo.png"
       inkscape:export-xdpi="200"
       inkscape:export-ydpi="200">
      <path
         inkscape:connector-curvature="0"
         id="path4615"
         d="m 109.80088,124.58718 7.77242,5.05312 12.84139,-8.69609 -7.09655,10.45882 12.05289,11.75147 4.1678,-10.22379 6.75863,-29.26113 z"
         style="fill:#ffffff;stroke:#333333;stroke-width:0.31896654px;stroke-linecap:butt;stroke-linejoin:miter;stroke-opacity:1" />
      <path
         style="fill:#333333;stroke:#333333;stroke-width:0.08459657"
         d="m 136.04246,145.77826 c 0.0231,-0.039 -0.0958,-0.12111 -0.26427,-0.18253 -0.23048,-0.0842 -1.47688,-1.33029 -5.04054,-5.03945 -3.28672,-3.4209 -4.77288,-4.9122 -4.86032,-4.87721 -0.0692,0.0279 -1.06034,1.42331 -2.20233,3.10121 -2.96388,4.35482 -3.23833,4.73509 -3.59517,4.98144 -0.62761,0.43329 -1.17564,0.20543 -1.3736,-0.57113 -0.0453,-0.17744 -0.42099,-3.12218 -0.83498,-6.54391 -0.45135,-3.73018 -0.79264,-6.26218 -0.85237,-6.3235 -0.0547,-0.0562 -2.35454,-0.80564 -5.11053,-1.6653 -2.75599,-0.85963 -5.16756,-1.62295 -5.35905,-1.69625 -0.40664,-0.15562 -0.83847,-0.63062 -0.90934,-1.00015 -0.0352,-0.18395 -0.0699,-0.22577 -0.11964,-0.14414 -0.0434,0.0714 -0.0699,-0.0492 -0.0699,-0.31704 0,-0.26788 0.0266,-0.38836 0.0699,-0.31707 0.0493,0.0815 0.0848,0.0373 0.12062,-0.15035 0.0282,-0.14697 0.19042,-0.40215 0.3637,-0.57206 0.36856,-0.3613 39.35057,-22.42354 39.73727,-22.48967 0.21784,-0.0373 0.228,-0.0507 0.0828,-0.10984 -0.1119,-0.0456 -0.0178,-0.069 0.29006,-0.0722 0.27765,-0.002 0.41248,0.0238 0.34532,0.0681 -0.0783,0.0517 -0.0379,0.0879 0.13893,0.12486 0.32081,0.067 0.83317,0.60147 0.89734,0.93615 0.0355,0.18444 0.0701,0.22651 0.11976,0.14491 0.0421,-0.0692 0.0671,0.0914 0.0629,0.40346 -0.006,0.38903 -0.0237,0.46451 -0.0734,0.30241 -0.0637,-0.20757 -0.0666,-0.2084 -0.0746,-0.0213 -0.01,0.23956 -9.66506,40.57324 -9.79875,40.93464 -0.20098,0.54324 -0.66752,0.98433 -1.05956,1.00172 l -0.20707,0.009 0.20707,0.0692 c 0.16229,0.0541 0.11202,0.0709 -0.23264,0.0778 -0.24187,0.005 -0.42087,-0.0233 -0.39784,-0.0621 z m -0.37271,-5.04886 c 0.25869,-0.8412 8.12639,-33.89716 8.09088,-33.9937 -0.0233,-0.0633 -0.0879,-0.11513 -0.14369,-0.11513 -0.0556,0 -7.38122,4.11186 -16.27895,9.13746 -13.67342,7.723 -16.17428,9.16385 -16.1557,9.30799 0.0189,0.14606 0.54332,0.33471 3.66629,1.31847 2.14258,0.67494 3.74667,1.13686 3.89277,1.12096 0.17365,-0.0189 3.22413,-2.24591 10.13152,-7.39651 5.43565,-4.05316 9.89628,-7.3556 9.91246,-7.33872 0.0162,0.0169 -2.81921,4.15949 -6.30088,9.20577 -3.48165,5.0463 -6.33029,9.24502 -6.33029,9.33043 0,0.19791 9.10092,9.70384 9.29039,9.70384 0.0838,0 0.17309,-0.11154 0.22514,-0.28083 z"
         id="path88"
         inkscape:connector-curvature="0" />
    </g>
  </g>
</svg>
